<svg xmlns="http://www.w3.org/2000/svg" xmlns:xlink="http://www.w3.org/1999/xlink"><symbol viewBox="0 0 107 23" id="logo"><path class="acls-1" d="M82.148 4.109a6.07 6.07 0 0 1 1.862.28l1.113-4.2a10.358 10.358 0 0 0-1.886-.175c-5.319 0-10.741 3.752-12.995 8.7a12.466 12.466 0 0 0-.706 1.958 10.774 10.774 0 0 0-.349 2.131c-.288 4.868 3.124 8.533 8.382 8.533a11.927 11.927 0 0 0 2-.175l1.113-4.2a7.611 7.611 0 0 1-2.026.284 4.824 4.824 0 0 1-5.156-4.438h8.277l.97-3.647.113-.441h-8.328a9.282 9.282 0 0 1 7.616-4.61zM57.574.052h13.779L70.334 4.12h-4.717l-4.311 17.22h-4.343l4.31-17.22h-4.719l1.02-4.068zm-46.234 0a7.89 7.89 0 0 0-6.978 4.589 6.376 6.376 0 0 0 1.679 6.8l3.326 2.781a1.693 1.693 0 0 1 .272 2.1 2.177 2.177 0 0 1-2.148.918H1.042L0 21.337h7.467a7.688 7.688 0 0 0 6.724-3.786s2.438-3.684-.459-6.6c-.058-.06-4.232-3.716-4.232-3.716a1.73 1.73 0 0 1-.612-1.9 1.894 1.894 0 0 1 1.317-1.118 4.375 4.375 0 0 1 .99-.1h5.19L17.402.049H11.34zM31.458.01c-6 0-12.136 4.774-13.7 10.663s2.031 10.663 8.032 10.663 12.136-4.774 13.7-10.663S37.46.006 31.459.006zm3.859 10.663a9.245 9.245 0 0 1-8.44 6.567c-3.7 0-5.912-2.94-4.948-6.567A9.247 9.247 0 0 1 30.37 4.1c3.696 0 5.912 2.942 4.948 6.569zM53.5 8.691h-6.772l.541-2.32a3.244 3.244 0 0 1 2.669-2.255h4.676L55.635.048H50.52a8 8 0 0 0-7.54 6.238l-3.8 15.05h4.344l2.185-8.554h6.787zM98.6 0c-5.261 0-10.623 3.671-12.921 8.543a12.562 12.562 0 0 0-.791 2.149 10.265 10.265 0 0 0-.216 1.038c0 .014 0 .028-.008.042-.052.326-.085.645-.105.96 0 .061-.007.121-.01.182 0 .084-.01.17-.013.255 0 .2.006.4.015.6v.129c.018.3.049.6.093.887 0 .023.006.045.012.068a8.027 8.027 0 0 0 5.377 6.479l.009-.03 1.147-4.387c-1.888-1.083-2.8-3.688-2.119-6.247A9.245 9.245 0 0 1 97.512 4.1c3.7 0 5.913 2.941 4.948 6.567a9.358 9.358 0 0 1-5.994 6.15l1.015-4.031h-4.072L90.826 23H94.9l.479-1.91a13.98 13.98 0 0 0 3.221-1.123l.2-.1c.412-.206.813-.431 1.207-.674.085-.051.171-.1.256-.155q.3-.194.591-.4a17.522 17.522 0 0 0 1.696-1.384c.119-.111.237-.22.352-.335.265-.262.518-.535.762-.815.078-.09.153-.182.229-.272.263-.316.519-.638.753-.973l.083-.123c.178-.257.345-.519.5-.786a14.81 14.81 0 0 0 .512-.941c.049-.1.1-.2.147-.3.1-.218.19-.439.279-.663.049-.122.1-.245.148-.368.065-.182.118-.368.175-.553.049-.154.105-.306.147-.462C108.2 4.775 104.6 0 98.6 0z" fill="#0094e2" fill-rule="evenodd"/></symbol></svg>